<svg width="154" height="106" viewBox="0 0 154 106" fill="none" xmlns="http://www.w3.org/2000/svg">
<path d="M34.45 66.2499C34.4507 70.3007 35.7773 74.2398 38.2271 77.4658C40.677 80.6917 44.1154 83.0271 48.0173 84.1151C51.9192 85.2032 56.07 84.9842 59.8357 83.4915C63.6013 81.9988 66.7749 79.3145 68.8716 75.8487C70.9684 72.3828 71.873 68.3259 71.4473 64.2976C71.0217 60.2693 69.2891 56.491 66.5143 53.5399C63.7395 50.5888 60.075 48.6271 56.0805 47.9544C52.086 47.2818 47.9811 47.9351 44.3928 49.8146C45.633 45.2142 47.382 41.3611 49.4755 38.2871C53.6625 32.1285 59.148 29.1499 64.925 29.1499C65.9793 29.1499 66.9903 28.7311 67.7358 27.9857C68.4812 27.2402 68.9 26.2292 68.9 25.1749C68.9 24.1207 68.4812 23.1096 67.7358 22.3642C66.9903 21.6187 65.9793 21.1999 64.925 21.1999C56.0687 21.1999 48.2989 25.8798 42.8982 33.8139C37.5452 41.6897 34.45 52.8038 34.45 66.2499V66.2499Z" fill="#1AA090"/>
<path d="M82.45 66.2499C82.4507 70.3007 83.7773 74.2398 86.2271 77.4658C88.677 80.6917 92.1154 83.0271 96.0173 84.1151C99.9192 85.2032 104.07 84.9842 107.836 83.4915C111.601 81.9988 114.775 79.3145 116.872 75.8487C118.968 72.3828 119.873 68.3259 119.447 64.2976C119.022 60.2693 117.289 56.491 114.514 53.5399C111.74 50.5888 108.075 48.6271 104.08 47.9544C100.086 47.2818 95.9811 47.9351 92.3928 49.8146C93.633 45.2142 95.382 41.3611 97.4755 38.2871C101.663 32.1285 107.148 29.1499 112.925 29.1499C113.979 29.1499 114.99 28.7311 115.736 27.9857C116.481 27.2402 116.9 26.2292 116.9 25.1749C116.9 24.1207 116.481 23.1096 115.736 22.3642C114.99 21.6187 113.979 21.1999 112.925 21.1999C104.069 21.1999 96.2989 25.8798 90.8982 33.8139C85.5452 41.6897 82.45 52.8038 82.45 66.2499V66.2499Z" fill="#1AA090"/>
</svg>
