<svg width="11" height="25" viewBox="0 0 11 25" fill="none" xmlns="http://www.w3.org/2000/svg">
<path d="M3.68426 0.640821C3.53628 0.592388 3.37533 0.60287 3.23488 0.670086C3.09444 0.737302 2.98532 0.856076 2.93021 1.0017C2.87511 1.14733 2.87828 1.30859 2.93905 1.45194C2.99982 1.59529 3.11351 1.70969 3.25649 1.77135C5.89897 2.77594 6.24117 5.47024 6.15554 7.2338L5.16688 7.14568C4.83498 7.11652 4.38661 7.2977 4.17015 7.54946L2.13166 10.0006C1.89034 10.3065 1.73617 10.6719 1.68545 11.0582L0.693036 22.4885C0.670373 22.7547 0.754121 23.0191 0.925944 23.2237C1.09777 23.4283 1.34366 23.5565 1.60979 23.5802L9.03285 24.2361C9.5871 24.2834 9.87343 23.8566 9.92294 23.3029L10.9146 11.872C10.9418 11.5424 10.8268 11.0385 10.6562 10.7518L8.88845 7.96572C8.71862 7.67962 8.30862 7.42304 7.97672 7.39388L7.37436 7.34011C7.47947 4.9637 6.78056 1.81865 3.68426 0.640821V0.640821ZM8.04327 10.0044C8.02483 10.2148 7.96511 10.4196 7.86751 10.6069C7.76991 10.7943 7.63635 10.9606 7.47447 11.0963C7.31258 11.232 7.12554 11.3345 6.92404 11.3979C6.72253 11.4613 6.51051 11.4844 6.30008 11.4658C5.87417 11.4283 5.48053 11.2234 5.20556 10.896C4.93058 10.5686 4.79675 10.1455 4.83344 9.71951C4.86254 9.38585 4.99517 9.06962 5.21278 8.81501C5.4304 8.56041 5.72213 8.38017 6.04719 8.29947C5.99799 8.61325 5.95132 8.81821 5.94032 8.85466C5.90591 8.98762 5.91769 9.12831 5.97371 9.25369C6.02974 9.37908 6.12669 9.48171 6.24868 9.54478C6.37067 9.60786 6.51046 9.62762 6.64516 9.60084C6.77985 9.57406 6.90146 9.50233 6.99005 9.39739C7.04533 9.33151 7.08657 9.25124 7.11005 9.16259C7.16427 8.95484 7.21447 8.72544 7.25514 8.47629C7.51709 8.63093 7.73003 8.8564 7.86947 9.12675C8.0089 9.3971 8.06915 9.70132 8.04327 10.0044V10.0044Z" fill="white"/>
</svg>
